<?xml version="1.0" encoding="utf-8"?>
<!-- Generator: Adobe Illustrator 17.1.0, SVG Export Plug-In . SVG Version: 6.00 Build 0)  -->
<!DOCTYPE svg PUBLIC "-//W3C//DTD SVG 1.1//EN" "http://www.w3.org/Graphics/SVG/1.1/DTD/svg11.dtd">
<svg version="1.1" id="Layer_1" xmlns="http://www.w3.org/2000/svg" xmlns:xlink="http://www.w3.org/1999/xlink" x="0px" y="0px"
	 width="64px" height="12.6px" viewBox="0 0 64 12.6" enable-background="new 0 0 64 12.6" xml:space="preserve">
<g>
	<polygon fill="#FFFFFF" points="20.2,6.8 22.8,6.8 22.8,5.7 20.2,5.7 20.2,4.5 23.1,4.5 23.1,3.3 18.8,3.3 18.8,9.2 23.2,9.2 
		23.2,8 20.2,8 	"/>
	<polygon fill="#FFFFFF" points="30.9,3.3 29.4,3.3 28.2,5.1 27.1,3.3 25.5,3.3 27.4,6.2 25.4,9.2 27,9.2 28.2,7.3 29.5,9.2 
		31.1,9.2 29.1,6.1 	"/>
	<polygon fill="#FFFFFF" points="33.1,4.4 34.8,4.4 34.8,9.2 36.1,9.2 36.1,4.4 37.8,4.4 37.8,3.3 33.1,3.3 	"/>
	<path fill="#FFFFFF" d="M40.4,7.8c-0.2,0-0.4,0.1-0.5,0.2c-0.1,0.1-0.2,0.3-0.2,0.5c0,0.2,0.1,0.4,0.2,0.5c0.1,0.1,0.3,0.2,0.5,0.2
		c0.2,0,0.4-0.1,0.5-0.2c0.1-0.1,0.2-0.3,0.2-0.5c0-0.2-0.1-0.4-0.2-0.5C40.8,7.9,40.6,7.8,40.4,7.8z"/>
	<polygon fill="#FFFFFF" points="48.2,7.1 45.3,3.3 44.1,3.3 44.1,9.2 45.4,9.2 45.4,5.5 48.2,9.2 49.5,9.2 49.5,3.3 48.2,3.3 	"/>
	<polygon fill="#FFFFFF" points="53.9,6.8 56.5,6.8 56.5,5.7 53.9,5.7 53.9,4.5 56.8,4.5 56.8,3.3 52.5,3.3 52.5,9.2 56.9,9.2 
		56.9,8 53.9,8 	"/>
	<polygon fill="#FFFFFF" points="59.3,3.3 59.3,4.4 61,4.4 61,9.2 62.3,9.2 62.3,4.4 64,4.4 64,3.3 	"/>
	<path fill="#FFFFFF" d="M0,12.6h12.6V0H0V12.6z M1.6,1.6H11V11H8.9V3.7H1.6V1.6z M1.6,5.2h5.8V11H5.2V7.3H1.6V5.2z M1.6,8.9h2.1V11
		H1.6V8.9z"/>
</g>
</svg>
