<?xml version="1.0" encoding="utf-8"?>
<!-- Generator: Adobe Illustrator 17.1.0, SVG Export Plug-In . SVG Version: 6.00 Build 0)  -->
<!DOCTYPE svg PUBLIC "-//W3C//DTD SVG 1.1//EN" "http://www.w3.org/Graphics/SVG/1.1/DTD/svg11.dtd">
<svg version="1.1" id="Layer_1" xmlns="http://www.w3.org/2000/svg" xmlns:xlink="http://www.w3.org/1999/xlink" x="0px" y="0px"
	 width="234px" height="92px" viewBox="0 0 234 92" enable-background="new 0 0 234 92" xml:space="preserve">
<g>
	<polygon fill="#FFFFFF" points="84.4,47.4 91.7,47.4 91.7,44.4 84.4,44.4 84.4,41 92.5,41 92.5,37.8 80.8,37.8 80.8,54 92.8,54 
		92.8,50.8 84.4,50.8 	"/>
	<polygon fill="#FFFFFF" points="114.1,37.8 109.7,37.8 106.7,42.6 103.6,37.8 99.2,37.8 104.3,45.7 98.9,54 103.2,54 106.7,48.7 
		110.1,54 114.5,54 109,45.6 	"/>
	<polygon fill="#FFFFFF" points="120,40.9 124.6,40.9 124.6,54 128.2,54 128.2,40.9 132.8,40.9 132.8,37.8 120,37.8 	"/>
	<path fill="#FFFFFF" d="M140.2,50.1c-0.6,0-1.1,0.2-1.4,0.6c-0.4,0.4-0.6,0.9-0.6,1.4c0,0.6,0.2,1.1,0.6,1.4
		c0.4,0.4,0.9,0.6,1.4,0.6c0.6,0,1.1-0.2,1.4-0.6c0.4-0.4,0.6-0.9,0.6-1.4c0-0.6-0.2-1.1-0.6-1.4C141.3,50.3,140.8,50.1,140.2,50.1z
		"/>
	<polygon fill="#FFFFFF" points="161.5,48.2 153.6,37.8 150.2,37.8 150.2,54 153.8,54 153.8,43.9 161.5,54 165.1,54 165.1,37.8 
		161.5,37.8 	"/>
	<polygon fill="#FFFFFF" points="177.1,47.4 184.4,47.4 184.4,44.4 177.1,44.4 177.1,41 185.2,41 185.2,37.8 173.5,37.8 173.5,54 
		185.4,54 185.4,50.8 177.1,50.8 	"/>
	<polygon fill="#FFFFFF" points="192.2,37.8 192.2,40.9 196.8,40.9 196.8,54 200.4,54 200.4,40.9 205,40.9 205,37.8 	"/>
	<path fill="#FFFFFF" d="M29,63.3h34.6V28.7H29V63.3z M33.3,33h26v26h-5.8V38.8H33.3V33z M33.3,43.1h15.9V59h-5.8V48.9H33.3V43.1z
		 M33.3,53.2h5.8V59h-5.8V53.2z"/>
</g>
</svg>
