<?xml version="1.0" encoding="utf-8"?>
<!-- Generator: Adobe Illustrator 17.1.0, SVG Export Plug-In . SVG Version: 6.00 Build 0)  -->
<!DOCTYPE svg PUBLIC "-//W3C//DTD SVG 1.1//EN" "http://www.w3.org/Graphics/SVG/1.1/DTD/svg11.dtd">
<svg version="1.1" id="Layer_1" xmlns="http://www.w3.org/2000/svg" xmlns:xlink="http://www.w3.org/1999/xlink" x="0px" y="0px"
	 width="468px" height="183px" viewBox="0 0 468 183" enable-background="new 0 0 468 183" xml:space="preserve">
<g>
	<polygon points="166.8,94.5 181.8,94.5 181.8,88.1 166.8,88.1 166.8,81.2 183.5,81.2 183.5,74.6 159.4,74.6 159.4,108 184,108 
		184,101.4 166.8,101.4 	"/>
	<polygon points="228,74.6 219,74.6 212.6,84.5 206.3,74.6 197.3,74.6 207.8,90.9 196.6,108 205.6,108 212.6,97 219.8,108 
		228.9,108 217.6,90.7 	"/>
	<polygon points="240.2,81.1 249.7,81.1 249.7,108 257.2,108 257.2,81.1 266.6,81.1 266.6,74.6 240.2,74.6 	"/>
	<path d="M281.8,100c-1.2,0-2.2,0.4-3,1.2c-0.8,0.8-1.2,1.8-1.2,3c0,1.2,0.4,2.2,1.2,3c0.8,0.8,1.8,1.2,3,1.2c1.2,0,2.2-0.4,3-1.2
		c0.8-0.8,1.2-1.8,1.2-3c0-1.2-0.4-2.2-1.2-3C284,100.4,283,100,281.8,100z"/>
	<polygon points="325.8,96.1 309.4,74.6 302.4,74.6 302.4,108 309.9,108 309.9,87.1 325.8,108 333.2,108 333.2,74.6 325.8,74.6 	"/>
	<polygon points="358,94.5 372.9,94.5 372.9,88.1 358,88.1 358,81.2 374.6,81.2 374.6,74.6 350.5,74.6 350.5,108 375.1,108 
		375.1,101.4 358,101.4 	"/>
	<polygon points="389.1,74.6 389.1,81.1 398.6,81.1 398.6,108 406,108 406,81.1 415.5,81.1 415.5,74.6 	"/>
	<path d="M52.5,127.2h71.3V55.8H52.5V127.2z M61.3,64.7H115v53.7h-12V76.7H61.3V64.7z M61.3,85.5h32.8v32.8h-12V97.5H61.3V85.5z
		 M61.3,106.3h12v12h-12V106.3z"/>
</g>
</svg>
