<?xml version="1.0" encoding="utf-8"?>
<!-- Generator: Adobe Illustrator 17.1.0, SVG Export Plug-In . SVG Version: 6.00 Build 0)  -->
<!DOCTYPE svg PUBLIC "-//W3C//DTD SVG 1.1//EN" "http://www.w3.org/Graphics/SVG/1.1/DTD/svg11.dtd">
<svg version="1.1" id="Layer_1" xmlns="http://www.w3.org/2000/svg" xmlns:xlink="http://www.w3.org/1999/xlink" x="0px" y="0px"
	 width="48px" height="48px" viewBox="0 0 48 48" enable-background="new 0 0 48 48" xml:space="preserve">
<g>
	<g>
		<path fill="#FFFFFF" d="M5.3,42.1v1.2H2.4v1.2H5v1.1H2.4v1.2h3v1.2H1.1v-5.8H5.3z"/>
		<path fill="#FFFFFF" d="M11.5,42.1h1.6l-1.8,2.8l2,3h-1.6L10.4,46l-1.2,1.9H7.6l2-3l-1.8-2.8h1.6l1.1,1.7L11.5,42.1z"/>
		<path fill="#FFFFFF" d="M18.2,43.2v4.7h-1.3v-4.7h-1.7v-1.1h4.6v1.1H18.2z"/>
		<path fill="#FFFFFF" d="M22,47.8c-0.1-0.1-0.2-0.3-0.2-0.5c0-0.2,0.1-0.4,0.2-0.5c0.1-0.1,0.3-0.2,0.5-0.2s0.4,0.1,0.5,0.2
			c0.1,0.1,0.2,0.3,0.2,0.5c0,0.2-0.1,0.4-0.2,0.5c-0.1,0.1-0.3,0.2-0.5,0.2S22.1,47.9,22,47.8z"/>
		<path fill="#FFFFFF" d="M30.1,42.1h1.3v5.8h-1.3l-2.8-3.7v3.7h-1.3v-5.8h1.2l2.9,3.8V42.1z"/>
		<path fill="#FFFFFF" d="M38.7,42.1v1.2h-2.9v1.2h2.6v1.1h-2.6v1.2h3v1.2h-4.3v-5.8H38.7z"/>
		<path fill="#FFFFFF" d="M44.1,43.2v4.7h-1.3v-4.7h-1.7v-1.1h4.6v1.1H44.1z"/>
	</g>
	<path fill="#FFFFFF" d="M7.5,0v31.8h31.8V0H7.5z M16.8,27.9h-5.4v-5.4h5.4V27.9z M26.1,27.9h-5.4v-9.3h-9.3v-5.4h14.7V27.9z
		 M35.4,27.9h-5.4V9.3H11.5V3.9h24V27.9z"/>
</g>
</svg>
