<?xml version="1.0" encoding="utf-8"?>
<!-- Generator: Adobe Illustrator 17.1.0, SVG Export Plug-In . SVG Version: 6.00 Build 0)  -->
<!DOCTYPE svg PUBLIC "-//W3C//DTD SVG 1.1//EN" "http://www.w3.org/Graphics/SVG/1.1/DTD/svg11.dtd">
<svg version="1.1" id="Layer_1" xmlns="http://www.w3.org/2000/svg" xmlns:xlink="http://www.w3.org/1999/xlink" x="0px" y="0px"
	 width="400px" height="400px" viewBox="0 0 400 400" enable-background="new 0 0 400 400" xml:space="preserve">
<g>
	<g>
		<path d="M93.9,305.9v6.8h-17v7h15.3v6.5H76.9v7.1h17.5v6.7H69.3v-34.1H93.9z"/>
		<path d="M130.2,305.9h9.2l-10.6,16.4l11.5,17.7h-9.3l-7.3-11.2l-7.2,11.2h-9.2l11.5-17.5l-10.7-16.6h9.1l6.5,10.1L130.2,305.9z"/>
		<path d="M169.1,312.5V340h-7.6v-27.5h-9.7v-6.6h26.9v6.6H169.1z"/>
		<path d="M191.2,339.2c-0.8-0.8-1.2-1.8-1.2-3c0-1.2,0.4-2.2,1.2-3c0.8-0.8,1.8-1.2,3-1.2s2.2,0.4,3,1.2c0.8,0.8,1.2,1.8,1.2,3
			c0,1.2-0.4,2.2-1.2,3c-0.8,0.8-1.8,1.2-3,1.2S192.1,340,191.2,339.2z"/>
		<path d="M239.1,305.9h7.6V340h-7.6l-16.3-21.4V340h-7.6v-34.1h7.1l16.7,22V305.9z"/>
		<path d="M289,305.9v6.8h-17v7h15.3v6.5H272v7.1h17.5v6.7h-25.1v-34.1H289z"/>
		<path d="M321,312.5V340h-7.6v-27.5h-9.7v-6.6h26.9v6.6H321z"/>
	</g>
	<path d="M106.8,59.6v186.3h186.3V59.6H106.8z M161.3,222.9h-31.4v-31.4h31.4V222.9z M215.6,222.9h-31.3v-54.4h-54.4v-31.3h85.8
		V222.9z M270.1,222.9h-31.5V114.1H129.9V82.6h140.2V222.9z"/>
</g>
</svg>
