<?xml version="1.0" encoding="utf-8"?>
<!-- Generator: Adobe Illustrator 17.1.0, SVG Export Plug-In . SVG Version: 6.00 Build 0)  -->
<!DOCTYPE svg PUBLIC "-//W3C//DTD SVG 1.1//EN" "http://www.w3.org/Graphics/SVG/1.1/DTD/svg11.dtd">
<svg version="1.1" id="Layer_1" xmlns="http://www.w3.org/2000/svg" xmlns:xlink="http://www.w3.org/1999/xlink" x="0px" y="0px"
	 width="200px" height="200px" viewBox="0 0 200 200" enable-background="new 0 0 200 200" xml:space="preserve">
<g>
	<g>
		<path d="M43,156.9v3.6h-9.1v3.8h8.2v3.5h-8.2v3.8h9.4v3.6H29.8v-18.3H43z"/>
		<path d="M62.5,156.9h4.9l-5.7,8.8l6.2,9.5h-5l-3.9-6l-3.9,6h-4.9l6.2-9.4l-5.7-8.9h4.9l3.5,5.4L62.5,156.9z"/>
		<path d="M83.4,160.4v14.8h-4.1v-14.8h-5.2v-3.5h14.5v3.5H83.4z"/>
		<path d="M95.3,174.7c-0.4-0.4-0.7-1-0.7-1.6c0-0.6,0.2-1.2,0.7-1.6c0.4-0.4,1-0.7,1.6-0.7s1.2,0.2,1.6,0.7c0.4,0.4,0.7,1,0.7,1.6
			c0,0.6-0.2,1.2-0.7,1.6c-0.4,0.4-1,0.7-1.6,0.7S95.7,175.2,95.3,174.7z"/>
		<path d="M121,156.9h4.1v18.3H121l-8.7-11.5v11.5h-4.1v-18.3h3.8l9,11.8V156.9z"/>
		<path d="M147.8,156.9v3.6h-9.1v3.8h8.2v3.5h-8.2v3.8h9.4v3.6h-13.5v-18.3H147.8z"/>
		<path d="M165,160.4v14.8h-4.1v-14.8h-5.2v-3.5h14.5v3.5H165z"/>
	</g>
	<path d="M50,24.6v100.1H150V24.6H50z M79.2,112.3H62.3V95.4h16.9V112.3z M108.4,112.3H91.6V83.1H62.3V66.2h46.1V112.3z
		 M137.7,112.3h-16.9V53.9H62.3V37h75.3V112.3z"/>
</g>
</svg>
